<svg width="24" height="24" viewBox="0 0 24 24" fill="none" xmlns="http://www.w3.org/2000/svg">
<path d="M23.019 18.152H16.326L19.059 9.42899L20.92 15.392C20.994 15.629 21.1591 15.8268 21.379 15.9421C21.5989 16.0573 21.8555 16.0805 22.0925 16.0065C22.3295 15.9325 22.5273 15.7674 22.6426 15.5475C22.7578 15.3276 22.781 15.071 22.707 14.834L19.947 5.99099C19.8985 5.83573 19.8104 5.69578 19.6913 5.58496C19.5722 5.47413 19.4263 5.39625 19.268 5.35899L14.77 4.29999C14.6685 3.83109 14.449 3.39587 14.1323 3.03555C13.8155 2.67523 13.412 2.40174 12.96 2.24099V0.935989C12.9521 0.693172 12.85 0.462957 12.6754 0.293998C12.5009 0.12504 12.2674 0.0305786 12.0245 0.0305786C11.7816 0.0305786 11.5481 0.12504 11.3736 0.293998C11.199 0.462957 11.0969 0.693172 11.089 0.935989V2.24399C10.5936 2.42066 10.1575 2.73241 9.83 3.14399L5.115 2.03699C4.88464 1.98306 4.64241 2.01837 4.43703 2.13581C4.23165 2.25325 4.07836 2.44411 4.008 2.66999L0.0860021 15.281C0.0290669 15.4042 -0.000283459 15.5383 2.06335e-06 15.674C2.06335e-06 15.693 2.06335e-06 15.711 2.06335e-06 15.729C0.0245503 17.0208 0.55698 18.2509 1.48198 19.153C2.40699 20.0551 3.65011 20.5564 4.94212 20.5486C6.23413 20.5407 7.47103 20.0241 8.38495 19.1108C9.29887 18.1975 9.81623 16.961 9.825 15.669C9.82502 15.5421 9.79916 15.4165 9.749 15.3L6.281 4.23299L9.217 4.92199C9.22288 5.55042 9.43948 6.1587 9.83211 6.64941C10.2247 7.14013 10.7707 7.48489 11.3825 7.62848C11.9943 7.77208 12.6367 7.7062 13.2066 7.44139C13.7766 7.17659 14.2412 6.72819 14.526 6.16799L17.875 6.95399L14.195 18.7C14.1613 18.8284 14.1395 18.9596 14.13 19.092C14.1484 20.3827 14.6741 21.6144 15.5934 22.5206C16.5126 23.4269 17.7516 23.9349 19.0425 23.9349C20.3334 23.9349 21.5724 23.4269 22.4916 22.5206C23.4109 21.6144 23.9366 20.3827 23.955 19.092C23.9555 18.9687 23.9317 18.8466 23.8849 18.7326C23.8381 18.6185 23.7692 18.5149 23.6823 18.4275C23.5953 18.3402 23.4919 18.2709 23.3781 18.2236C23.2643 18.1763 23.1423 18.152 23.019 18.152ZM4.912 18.715C4.26942 18.714 3.64361 18.5099 3.12402 18.1318C2.60443 17.7537 2.21766 17.2211 2.019 16.61H7.807C7.60843 17.2213 7.22154 17.7542 6.70172 18.1323C6.1819 18.5104 5.55579 18.7144 4.913 18.715H4.912ZM7.612 14.738H2.212L4.903 6.09399L7.612 14.738ZM12.026 5.82699C11.8409 5.82699 11.6599 5.77209 11.506 5.66924C11.3521 5.5664 11.2321 5.42021 11.1613 5.24918C11.0904 5.07815 11.0719 4.88995 11.108 4.70838C11.1441 4.52682 11.2332 4.36004 11.3642 4.22914C11.4951 4.09823 11.6618 4.00909 11.8434 3.97297C12.025 3.93686 12.2132 3.95539 12.3842 4.02624C12.5552 4.09708 12.7014 4.21705 12.8043 4.37098C12.9071 4.5249 12.962 4.70586 12.962 4.89099C12.9617 5.13915 12.863 5.37707 12.6876 5.55255C12.5121 5.72802 12.2742 5.82672 12.026 5.82699ZM19.044 22.127C18.4013 22.1262 17.7752 21.9222 17.2554 21.5441C16.7356 21.166 16.3487 20.6332 16.15 20.022H21.936C21.7378 20.6337 21.351 21.167 20.8312 21.5455C20.3113 21.924 19.685 22.1282 19.042 22.129L19.044 22.127Z" fill="#808080"/>
</svg>
