<svg width="24" height="24" viewBox="0 0 24 24" fill="none" xmlns="http://www.w3.org/2000/svg">
<path d="M23.7594 5.456C23.6715 5.34792 23.5607 5.26079 23.4349 5.20093C23.3092 5.14108 23.1717 5.11002 23.0324 5.11H6.05038L5.98038 4.471V4.45C5.81612 3.22011 5.21157 2.09146 4.27878 1.27322C3.34598 0.454976 2.14819 0.00262686 0.907377 0C0.664036 0.00794854 0.43332 0.110203 0.263994 0.28515C0.0946678 0.460098 0 0.694029 0 0.9375C0 1.18097 0.0946678 1.4149 0.263994 1.58985C0.43332 1.7648 0.664036 1.86705 0.907377 1.875C1.69146 1.87695 2.44838 2.16238 3.03852 2.67863C3.62866 3.19489 4.0122 3.90714 4.11838 4.684L5.23238 14.922C4.73971 15.1453 4.32175 15.5058 4.02845 15.9603C3.73515 16.4148 3.5789 16.9441 3.57838 17.485C3.57838 17.493 3.57838 17.501 3.57838 17.508C3.57838 17.515 3.57838 17.524 3.57838 17.531C3.57917 18.2768 3.8758 18.9918 4.40316 19.5192C4.93053 20.0466 5.64557 20.3432 6.39138 20.344H6.76938C6.62769 20.7603 6.58731 21.2044 6.65157 21.6394C6.71584 22.0744 6.8829 22.4879 7.1389 22.8454C7.3949 23.203 7.73247 23.4943 8.12359 23.6953C8.51472 23.8963 8.94813 24.0012 9.38788 24.0012C9.82763 24.0012 10.261 23.8963 10.6522 23.6953C11.0433 23.4943 11.3808 23.203 11.6369 22.8454C11.8929 22.4879 12.0599 22.0744 12.1242 21.6394C12.1884 21.2044 12.1481 20.7603 12.0064 20.344H16.0504C15.8617 20.8985 15.8539 21.4986 16.0282 22.0578C16.2024 22.617 16.5497 23.1065 17.0199 23.4557C17.4902 23.8049 18.0592 23.9958 18.6449 24.0009C19.2306 24.006 19.8028 23.825 20.2791 23.484C20.7553 23.1431 21.1111 22.6597 21.295 22.1036C21.479 21.5475 21.4816 20.9474 21.3026 20.3897C21.1236 19.832 20.7722 19.3455 20.2989 19.0003C19.8257 18.6551 19.2551 18.4691 18.6694 18.469H6.39138C6.14286 18.4685 5.90469 18.3694 5.72905 18.1936C5.55341 18.0178 5.45464 17.7795 5.45438 17.531C5.45438 17.523 5.45438 17.515 5.45438 17.508C5.45438 17.501 5.45438 17.492 5.45438 17.485C5.45491 17.2365 5.55393 16.9983 5.72976 16.8227C5.90558 16.647 6.14386 16.5483 6.39238 16.548H18.3604C19.1935 16.5356 20.0051 16.2809 20.696 15.8152C21.3869 15.3494 21.9273 14.6927 22.2514 13.925C22.3433 13.6987 22.3433 13.4455 22.2514 13.2193C22.1595 12.993 21.983 12.8115 21.7594 12.7133C21.5358 12.6151 21.2828 12.608 21.054 12.6934C20.8252 12.7789 20.6388 12.9502 20.5344 13.171C20.3531 13.6025 20.052 13.9731 19.6667 14.2389C19.2815 14.5047 18.8281 14.6547 18.3604 14.671H7.09138L6.25438 6.984H21.8784L21.4194 9.184C21.3942 9.30449 21.3931 9.42875 21.4159 9.54969C21.4388 9.67063 21.4853 9.78588 21.5527 9.88886C21.6201 9.99184 21.7071 10.0805 21.8088 10.1499C21.9105 10.2192 22.0249 10.2679 22.1454 10.293C22.2659 10.3181 22.3901 10.3193 22.5111 10.2964C22.632 10.2736 22.7473 10.2271 22.8502 10.1597C22.9532 10.0923 23.0419 10.0052 23.1113 9.90353C23.1806 9.80184 23.2292 9.68749 23.2544 9.567L23.9484 6.239C23.9771 6.10265 23.975 5.96161 23.9423 5.82615C23.9096 5.6907 23.8471 5.56425 23.7594 5.456ZM18.6694 20.344C18.8456 20.344 19.0179 20.3963 19.1644 20.4942C19.3109 20.5921 19.4251 20.7312 19.4926 20.894C19.56 21.0568 19.5776 21.236 19.5433 21.4088C19.5089 21.5817 19.424 21.7404 19.2994 21.865C19.1748 21.9896 19.016 22.0745 18.8432 22.1089C18.6704 22.1433 18.4912 22.1256 18.3284 22.0582C18.1656 21.9907 18.0264 21.8765 17.9285 21.73C17.8306 21.5835 17.7784 21.4112 17.7784 21.235C17.7786 20.9988 17.8726 20.7723 18.0396 20.6053C18.2067 20.4382 18.4332 20.3443 18.6694 20.344ZM9.38838 20.344C9.5646 20.344 9.73687 20.3963 9.88339 20.4942C10.0299 20.5921 10.1441 20.7312 10.2116 20.894C10.279 21.0568 10.2966 21.236 10.2623 21.4088C10.2279 21.5817 10.143 21.7404 10.0184 21.865C9.8938 21.9896 9.73504 22.0745 9.5622 22.1089C9.38937 22.1433 9.21022 22.1256 9.04741 22.0582C8.8846 21.9907 8.74544 21.8765 8.64754 21.73C8.54963 21.5835 8.49738 21.4112 8.49738 21.235C8.49751 21.1178 8.52074 21.0017 8.56575 20.8935C8.61077 20.7853 8.67667 20.6869 8.7597 20.6042C8.84273 20.5214 8.94125 20.4559 9.04964 20.4112C9.15803 20.3666 9.27415 20.3437 9.39138 20.344H9.38838Z" fill="#808080"/>
</svg>
