<svg width="21" height="20" viewBox="0 0 21 20" fill="none" xmlns="http://www.w3.org/2000/svg">
<path d="M17.0561 19.8603C16.9066 19.8606 16.7615 19.8096 16.6451 19.7158L10.2633 14.6085H7.17008C6.99585 14.6085 6.82871 14.5393 6.70551 14.4161C6.58231 14.2929 6.51314 14.1258 6.51314 13.9516C6.51314 13.7773 6.58231 13.6103 6.70551 13.4871C6.82871 13.3639 6.99585 13.2946 7.17008 13.2946H10.4942C10.6431 13.2946 10.7876 13.3456 10.9034 13.4392L16.3973 17.8369V13.9516C16.3973 13.7773 16.4665 13.6103 16.5897 13.4871C16.7129 13.3639 16.88 13.2946 17.0543 13.2946H18.1916C18.5856 13.2941 18.9633 13.1373 19.2417 12.8586C19.52 12.5798 19.6764 12.202 19.6764 11.8081V2.79858C19.6759 2.40497 19.5193 2.02761 19.2409 1.74929C18.9626 1.47096 18.5852 1.31438 18.1916 1.31388H2.80043C2.4065 1.31388 2.02868 1.47024 1.74995 1.74862C1.47122 2.027 1.31438 2.40464 1.31388 2.79858V11.8081C1.31438 12.2022 1.47118 12.58 1.74986 12.8587C2.02854 13.1374 2.40632 13.2941 2.80043 13.2946H3.51933C3.69356 13.2946 3.8607 13.3639 3.9839 13.4871C4.1071 13.6103 4.17627 13.7773 4.17627 13.9516C4.17627 14.1258 4.1071 14.2929 3.9839 14.4161C3.8607 14.5393 3.69356 14.6085 3.51933 14.6085H2.80043C2.05786 14.608 1.34589 14.3128 0.82081 13.7877C0.295732 13.2627 0.000497203 12.5506 0 11.8081V2.79858C0.000994138 2.05633 0.296428 1.3448 0.821452 0.820123C1.34648 0.295451 2.05819 0.000496486 2.80043 0H18.1916C18.9336 0.000993204 19.6448 0.296169 20.1694 0.820787C20.694 1.34541 20.9892 2.05665 20.9902 2.79858V11.8081C20.9897 12.5503 20.6948 13.262 20.1702 13.7871C19.6455 14.3121 18.9339 14.6075 18.1916 14.6085H17.7112V19.2033C17.7115 19.2897 17.6946 19.3752 17.6616 19.455C17.6287 19.5349 17.5803 19.6074 17.5193 19.6684C17.4582 19.7295 17.3858 19.7779 17.3059 19.8108C17.2261 19.8437 17.1406 19.8605 17.0543 19.8603H17.0561Z" fill="#808080"/>
<path d="M8.23464 5.99901C7.96921 5.99901 7.70977 5.92029 7.48907 5.77282C7.26837 5.62536 7.09629 5.41578 6.99472 5.17055C6.89314 4.92533 6.86659 4.65548 6.91837 4.39515C6.97016 4.13482 7.09801 3.8957 7.2857 3.70801C7.47339 3.52033 7.71247 3.39251 7.9728 3.34073C8.23313 3.28895 8.50302 3.31552 8.74824 3.4171C8.99347 3.51867 9.203 3.69069 9.35047 3.91138C9.49793 4.13208 9.57666 4.39154 9.57666 4.65697C9.57616 5.01275 9.4346 5.35381 9.18302 5.60538C8.93145 5.85695 8.59042 5.99852 8.23464 5.99901ZM8.23464 4.62881C8.22717 4.62881 8.22003 4.63178 8.21475 4.63706C8.20947 4.64234 8.2065 4.64951 8.2065 4.65697C8.2065 4.687 8.26277 4.687 8.26277 4.65697C8.26277 4.64951 8.25981 4.64234 8.25453 4.63706C8.24925 4.63178 8.24211 4.62881 8.23464 4.62881Z" fill="#808080"/>
<path d="M8.23464 11.3032C7.96921 11.3032 7.70977 11.2245 7.48907 11.077C7.26837 10.9296 7.09629 10.72 6.99472 10.4748C6.89314 10.2295 6.86659 9.9597 6.91837 9.69937C6.97016 9.43904 7.09801 9.19992 7.2857 9.01223C7.47339 8.82454 7.71247 8.69671 7.9728 8.64492C8.23313 8.59314 8.50302 8.61974 8.74824 8.72131C8.99347 8.82289 9.203 8.99488 9.35047 9.21558C9.49793 9.43627 9.57666 9.69576 9.57666 9.96119C9.57616 10.317 9.4346 10.658 9.18302 10.9096C8.93145 11.1612 8.59042 11.3027 8.23464 11.3032ZM8.23464 9.93303C8.22717 9.93303 8.22003 9.936 8.21475 9.94128C8.20947 9.94656 8.2065 9.95372 8.2065 9.96119C8.2065 9.99122 8.26277 9.99122 8.26277 9.96119C8.26277 9.95372 8.25981 9.94656 8.25453 9.94128C8.24925 9.936 8.24211 9.93303 8.23464 9.93303Z" fill="#808080"/>
<path d="M12.0498 11.5791C11.8985 11.5791 11.7517 11.5267 11.6345 11.4309C11.5173 11.3351 11.4367 11.2018 11.4065 11.0534C11.3762 10.9051 11.3981 10.7508 11.4685 10.6168C11.5389 10.4828 11.6534 10.3772 11.7927 10.3178C12.3836 10.0674 12.8877 9.64853 13.2421 9.11346C13.5965 8.57838 13.7855 7.9508 13.7855 7.30902C13.7855 6.66724 13.5965 6.03965 13.2421 5.50458C12.8877 4.96951 12.3836 4.55064 11.7927 4.30022C11.7132 4.26658 11.6412 4.21761 11.5806 4.1561C11.52 4.0946 11.4722 4.02176 11.4397 3.94176C11.4073 3.86176 11.391 3.77616 11.3916 3.68984C11.3923 3.60352 11.4099 3.51819 11.4436 3.4387C11.4772 3.3592 11.5262 3.28712 11.5878 3.22655C11.6493 3.16599 11.722 3.11813 11.802 3.08571C11.882 3.05329 11.9677 3.03695 12.054 3.03762C12.1403 3.03828 12.2256 3.05594 12.3051 3.08958C13.1364 3.43931 13.846 4.02657 14.345 4.77783C14.844 5.52908 15.1101 6.41091 15.1101 7.31278C15.1101 8.21464 14.844 9.09645 14.345 9.8477C13.846 10.599 13.1364 11.1862 12.3051 11.536C12.2238 11.5674 12.137 11.5821 12.0498 11.5791Z" fill="#808080"/>
</svg>
