<svg width="23" height="22" viewBox="0 0 23 22" fill="none" xmlns="http://www.w3.org/2000/svg">
<path d="M19.2127 12.47L20.3027 11.38C21.3353 10.3467 21.9154 8.94575 21.9154 7.48498C21.9154 6.0242 21.3353 4.62321 20.3027 3.58998V3.58998C19.2695 2.55736 17.8685 1.97729 16.4077 1.97729C14.9469 1.97729 13.5459 2.55736 12.5127 3.58998L11.4527 4.58998L10.4027 3.58998C9.36945 2.55736 7.96846 1.97729 6.50768 1.97729C5.04691 1.97729 3.64591 2.55736 2.61268 3.58998V3.58998C1.58007 4.62321 1 6.0242 1 7.48498C1 8.94575 1.58007 10.3467 2.61268 11.38L3.66268 12.43L11.4527 20.22L15.9827 15.7" stroke="#808080" stroke-width="2" stroke-miterlimit="10" stroke-linecap="round"/>
</svg>
