<svg width="31" height="31" viewBox="0 0 31 31" fill="none" xmlns="http://www.w3.org/2000/svg">
<path d="M22.4063 2H8.80209C5.0454 2 2 5.0454 2 8.80209V22.4063C2 26.163 5.0454 29.2084 8.80209 29.2084H22.4063C26.163 29.2084 29.2084 26.163 29.2084 22.4063V8.80209C29.2084 5.0454 26.163 2 22.4063 2Z" stroke="#808080" stroke-width="2.72084" stroke-linecap="round" stroke-linejoin="round"/>
<path d="M23.0917 8.1228H23.1053M21.0511 14.748C21.219 15.8802 21.0256 17.0366 20.4984 18.0525C19.9712 19.0685 19.1371 19.8923 18.1148 20.4069C17.0924 20.9215 15.9338 21.1007 14.8037 20.9188C13.6737 20.737 12.6297 20.2034 11.8204 19.3941C11.0111 18.5847 10.4775 17.5408 10.2957 16.4108C10.1138 15.2807 10.293 14.1221 10.8075 13.0997C11.3221 12.0773 12.146 11.2433 13.162 10.7161C14.1779 10.1889 15.3342 9.99554 16.4664 10.1634C17.6213 10.3347 18.6905 10.8728 19.5161 11.6984C20.3417 12.524 20.8798 13.5932 21.0511 14.748Z" stroke="#808080" stroke-width="2.72084" stroke-linecap="round" stroke-linejoin="round"/>
</svg>
