<svg width="24" height="24" viewBox="0 0 24 24" fill="none" xmlns="http://www.w3.org/2000/svg">
<path d="M23.9975 9.84327C23.9983 11.551 23.554 13.2295 22.7085 14.7133C22.5854 14.9296 22.3815 15.0881 22.1415 15.154C21.9016 15.2199 21.6453 15.1878 21.429 15.0648C21.2127 14.9417 21.0542 14.7378 20.9882 14.4978C20.9223 14.2579 20.9544 14.0016 21.0775 13.7853C22.028 12.1108 22.3396 10.1487 21.9548 8.26215C21.57 6.37558 20.5147 4.6923 18.9844 3.52389C17.454 2.35547 15.5522 1.78103 13.6309 1.90689C11.7096 2.03276 9.89894 2.85041 8.53409 4.2085C7.16924 5.56659 6.34261 7.37315 6.20721 9.2938C6.07181 11.2144 6.6368 13.1191 7.79761 14.6553C8.95841 16.1914 10.6364 17.255 12.5211 17.6492C14.4057 18.0434 16.3693 17.7414 18.0485 16.7993C18.2648 16.6774 18.5206 16.6465 18.7597 16.7132C18.9988 16.78 19.2016 16.939 19.3235 17.1553C19.4453 17.3716 19.4763 17.6274 19.4095 17.8665C19.3428 18.1056 19.1838 18.3084 18.9675 18.4303C17.2415 19.4008 15.2626 19.8271 13.2901 19.6531C11.3177 19.4791 9.44385 18.713 7.91448 17.4553L1.59748 23.7273C1.51048 23.8143 1.40707 23.8831 1.29326 23.9298C1.17945 23.9765 1.05749 24.0001 0.934477 23.9993C0.749411 23.9986 0.568686 23.9432 0.41505 23.84C0.261413 23.7368 0.141731 23.5905 0.0710681 23.4194C0.000404917 23.2484 -0.0180816 23.0603 0.0179354 22.8787C0.0539524 22.6972 0.142863 22.5304 0.273477 22.3993L6.58348 16.1293C5.57407 14.9136 4.8722 13.4728 4.5372 11.9286C4.20221 10.3844 4.24394 8.78223 4.65886 7.25757C5.07379 5.73291 5.84971 4.33057 6.92103 3.16909C7.99235 2.00762 9.32757 1.12116 10.8138 0.584665C12.3001 0.048169 13.8936 -0.122593 15.4598 0.0868145C17.026 0.296222 18.5187 0.879643 19.8118 1.78775C21.1049 2.69587 22.1603 3.90197 22.8889 5.3041C23.6174 6.70623 23.9977 8.26316 23.9975 9.84327Z" fill="#808080"/>
</svg>
