<svg width="21" height="21" viewBox="0 0 21 21" fill="none" xmlns="http://www.w3.org/2000/svg">
<path d="M10.0359 15.2385C9.10423 15.2385 8.1935 14.9622 7.41882 14.4446C6.64415 13.927 6.04033 13.1913 5.68378 12.3305C5.32724 11.4697 5.23395 10.5225 5.41571 9.60875C5.59748 8.69496 6.04613 7.8556 6.70494 7.19679C7.36374 6.53798 8.20315 6.08933 9.11695 5.90756C10.0307 5.7258 10.9779 5.81909 11.8387 6.17564C12.6995 6.53218 13.4351 7.13595 13.9528 7.91063C14.4704 8.6853 14.7467 9.59608 14.7467 10.5278C14.7484 11.1409 14.6288 11.7483 14.3949 12.315C14.3629 12.4054 14.3129 12.4883 14.248 12.5587C14.183 12.6292 14.1044 12.6858 14.017 12.7249C13.9295 12.7641 13.835 12.7851 13.7392 12.7866C13.6434 12.7882 13.5482 12.7702 13.4596 12.7339C13.3709 12.6976 13.2905 12.6436 13.2233 12.5753C13.1561 12.507 13.1034 12.4257 13.0686 12.3365C13.0337 12.2472 13.0174 12.1518 13.0205 12.056C13.0236 11.9602 13.0462 11.866 13.0868 11.7792C13.381 11.0617 13.4125 10.2635 13.1759 9.52498C12.9393 8.7865 12.4497 8.1552 11.7933 7.74226C11.1369 7.32933 10.3558 7.16125 9.58769 7.26762C8.81955 7.37399 8.11361 7.748 7.59415 8.32377C7.07469 8.89954 6.77506 9.64014 6.74803 10.4151C6.72099 11.1901 6.96829 11.9498 7.44637 12.5604C7.92444 13.1709 8.60262 13.5932 9.36147 13.7529C10.1203 13.9125 10.9112 13.7993 11.5947 13.4331C11.6768 13.3841 11.768 13.3523 11.8627 13.3395C11.9575 13.3267 12.0538 13.3333 12.1459 13.3588C12.2381 13.3843 12.3241 13.4282 12.3988 13.4878C12.4735 13.5475 12.5353 13.6216 12.5806 13.7058C12.6258 13.7901 12.6535 13.8826 12.6621 13.9778C12.6706 14.073 12.6597 14.1689 12.6301 14.2598C12.6005 14.3507 12.5528 14.4347 12.4899 14.5067C12.427 14.5786 12.3501 14.637 12.2639 14.6785C11.5788 15.0461 10.8134 15.2385 10.0359 15.2385Z" fill="#808080"/>
<path d="M10.0357 4.54333C9.84807 4.54333 9.66809 4.46877 9.53539 4.33607C9.40268 4.20336 9.32812 4.02338 9.32812 3.83571V1.20741C9.32812 1.01973 9.40268 0.839703 9.53539 0.706998C9.66809 0.574294 9.84807 0.499786 10.0357 0.499786C10.2234 0.499786 10.4034 0.574294 10.5362 0.706998C10.6689 0.839703 10.7434 1.01973 10.7434 1.20741V3.83571C10.7436 3.92871 10.7255 4.02082 10.6901 4.10679C10.6546 4.19277 10.6025 4.2709 10.5367 4.33666C10.471 4.40242 10.3929 4.4545 10.3069 4.48997C10.2209 4.52544 10.1287 4.5436 10.0357 4.54333Z" fill="#808080"/>
<path d="M6.69208 5.44102C6.56898 5.43972 6.44831 5.4064 6.34197 5.34437C6.23563 5.28234 6.14727 5.19372 6.08555 5.08721L4.77342 2.81474C4.72696 2.73416 4.69681 2.64521 4.68472 2.55298C4.67263 2.46075 4.67881 2.36704 4.70294 2.27721C4.72706 2.18738 4.76863 2.10319 4.8253 2.02942C4.88197 1.95566 4.95262 1.89375 5.0332 1.84729C5.11378 1.80082 5.20273 1.77073 5.29496 1.75864C5.38718 1.74655 5.4809 1.75273 5.57073 1.77685C5.66056 1.80097 5.74475 1.84255 5.81851 1.89921C5.89228 1.95588 5.95414 2.02654 6.0006 2.10712L7.31273 4.37959C7.35908 4.46016 7.3891 4.54906 7.40108 4.64124C7.41306 4.73342 7.40679 4.82707 7.38257 4.91682C7.35835 5.00656 7.31669 5.09067 7.25996 5.1643C7.20323 5.23794 7.13251 5.29968 7.05191 5.346C6.94278 5.40968 6.81843 5.44252 6.69208 5.44102Z" fill="#808080"/>
<path d="M4.2395 7.88935C4.11618 7.88918 3.995 7.85715 3.88771 7.79636L1.61524 6.48423C1.4525 6.3904 1.3337 6.23579 1.28497 6.05436C1.23625 5.87293 1.26162 5.67957 1.35546 5.51683C1.4493 5.35409 1.60391 5.23529 1.78533 5.18657C1.96676 5.13785 2.16012 5.16317 2.32286 5.257L4.59533 6.56913C4.73027 6.64715 4.83569 6.76757 4.89519 6.91164C4.95469 7.05571 4.96493 7.21539 4.92436 7.3659C4.8838 7.5164 4.79469 7.64929 4.67085 7.74394C4.54701 7.8386 4.39537 7.88972 4.2395 7.88935Z" fill="#808080"/>
<path d="M3.33592 11.2354H0.70762C0.519947 11.2354 0.339966 11.1608 0.207261 11.0281C0.0745567 10.8954 0 10.7155 0 10.5278C0 10.3401 0.0745567 10.1601 0.207261 10.0274C0.339966 9.89472 0.519947 9.82016 0.70762 9.82016H3.33592C3.5236 9.82016 3.70358 9.89472 3.83628 10.0274C3.96899 10.1601 4.04354 10.3401 4.04354 10.5278C4.04354 10.7155 3.96899 10.8954 3.83628 11.0281C3.70358 11.1608 3.5236 11.2354 3.33592 11.2354Z" fill="#808080"/>
<path d="M1.96995 15.8935C1.81425 15.8934 1.66294 15.842 1.53943 15.7472C1.41593 15.6524 1.32712 15.5195 1.28681 15.3691C1.24651 15.2187 1.25694 15.0592 1.31648 14.9153C1.37601 14.7714 1.48135 14.6512 1.61614 14.5733L3.88861 13.2612C3.96919 13.2147 4.05814 13.1846 4.15036 13.1725C4.24259 13.1604 4.3363 13.1666 4.42613 13.1907C4.51597 13.2149 4.60016 13.2564 4.67392 13.3131C4.74768 13.3698 4.80955 13.4404 4.85601 13.521C4.90247 13.6015 4.93262 13.6905 4.94471 13.7827C4.9568 13.8749 4.95062 13.9686 4.92649 14.0585C4.90237 14.1483 4.8608 14.2325 4.80413 14.3063C4.74747 14.38 4.67681 14.4419 4.59623 14.4884L2.32376 15.7985C2.21636 15.861 2.09423 15.8938 1.96995 15.8935Z" fill="#808080"/>
<path d="M5.37811 19.3043C5.25443 19.3032 5.13317 19.2696 5.02647 19.2071C4.91977 19.1445 4.83132 19.0551 4.76995 18.9478C4.70859 18.8404 4.67648 18.7188 4.67676 18.5951C4.67704 18.4714 4.70973 18.35 4.77158 18.2429L6.08371 15.9703C6.17754 15.8076 6.33215 15.6888 6.51358 15.6401C6.69501 15.5914 6.88837 15.6167 7.05111 15.7106C7.21385 15.8044 7.33265 15.9591 7.38137 16.1405C7.43009 16.3219 7.40472 16.5152 7.31089 16.678L5.99876 18.9505C5.93583 19.0591 5.84525 19.149 5.73622 19.2111C5.62718 19.2733 5.50361 19.3055 5.37811 19.3043Z" fill="#808080"/>
<path d="M10.0357 20.5517C9.84807 20.5517 9.66809 20.4772 9.53539 20.3445C9.40268 20.2118 9.32812 20.0318 9.32812 19.8441V17.2158C9.32812 17.0281 9.40268 16.8481 9.53539 16.7154C9.66809 16.5827 9.84807 16.5082 10.0357 16.5082C10.2234 16.5082 10.4034 16.5827 10.5362 16.7154C10.6689 16.8481 10.7434 17.0281 10.7434 17.2158V19.8441C10.7436 19.9371 10.7255 20.0292 10.6901 20.1152C10.6546 20.2012 10.6025 20.2793 10.5367 20.3451C10.471 20.4108 10.3929 20.4629 10.3069 20.4984C10.2209 20.5339 10.1287 20.552 10.0357 20.5517Z" fill="#808080"/>
<path d="M14.697 19.3043C14.5738 19.303 14.4532 19.2697 14.3469 19.2076C14.2406 19.1456 14.1521 19.057 14.0904 18.9505L12.7783 16.6779C12.7318 16.5974 12.7017 16.5085 12.6896 16.4162C12.6775 16.324 12.6837 16.2303 12.7079 16.1405C12.732 16.0506 12.7736 15.9664 12.8302 15.8926C12.8869 15.8189 12.9575 15.757 13.0381 15.7105C13.1187 15.6641 13.2076 15.6339 13.2998 15.6218C13.3921 15.6098 13.4858 15.616 13.5756 15.6401C13.6654 15.6642 13.7497 15.7058 13.8234 15.7625C13.8972 15.8191 13.9591 15.8897 14.0055 15.9703L15.3176 18.2428C15.364 18.3234 15.394 18.4123 15.406 18.5045C15.418 18.5967 15.4117 18.6903 15.3874 18.7801C15.3632 18.8698 15.3216 18.9539 15.2648 19.0275C15.2081 19.1012 15.1374 19.1629 15.0568 19.2092C14.9477 19.2729 14.8233 19.3058 14.697 19.3043Z" fill="#808080"/>
<path d="M18.1048 15.8935C17.9805 15.8938 17.8584 15.861 17.751 15.7985L15.4785 14.4884C15.3979 14.4419 15.3273 14.38 15.2706 14.3063C15.2139 14.2325 15.1724 14.1483 15.1482 14.0585C15.1241 13.9686 15.1179 13.8749 15.13 13.7827C15.1421 13.6905 15.1722 13.6015 15.2187 13.521C15.2651 13.4404 15.3271 13.3698 15.4008 13.3131C15.4746 13.2564 15.5588 13.2149 15.6486 13.1907C15.7384 13.1666 15.8322 13.1604 15.9244 13.1725C16.0166 13.1846 16.1056 13.2147 16.1861 13.2612L18.4586 14.5733C18.5934 14.6512 18.6987 14.7714 18.7583 14.9153C18.8178 15.0592 18.8282 15.2187 18.7879 15.3691C18.7476 15.5195 18.6588 15.6524 18.5353 15.7472C18.4118 15.842 18.2605 15.8934 18.1048 15.8935Z" fill="#808080"/>
<path d="M19.3525 11.2354H16.7242C16.5365 11.2354 16.3566 11.1608 16.2239 11.0281C16.0912 10.8954 16.0166 10.7155 16.0166 10.5278C16.0166 10.3401 16.0912 10.1601 16.2239 10.0274C16.3566 9.89472 16.5365 9.82016 16.7242 9.82016H19.3525C19.5402 9.82016 19.7202 9.89472 19.8529 10.0274C19.9856 10.1601 20.0601 10.3401 20.0601 10.5278C20.0601 10.7155 19.9856 10.8954 19.8529 11.0281C19.7202 11.1608 19.5402 11.2354 19.3525 11.2354Z" fill="#808080"/>
<path d="M15.8323 7.88935C15.6766 7.88927 15.5252 7.83787 15.4017 7.74305C15.2782 7.64824 15.1894 7.5153 15.1491 7.36491C15.1088 7.21451 15.1192 7.05506 15.1788 6.91119C15.2383 6.76733 15.3437 6.64707 15.4784 6.56913L17.7509 5.257C17.9137 5.16317 18.107 5.13785 18.2884 5.18657C18.4699 5.23529 18.6245 5.35409 18.7183 5.51683C18.8121 5.67957 18.8375 5.87293 18.7888 6.05436C18.7401 6.23579 18.6213 6.3904 18.4585 6.48423L16.1861 7.79636C16.0781 7.8574 15.9562 7.88944 15.8323 7.88935Z" fill="#808080"/>
<path d="M13.382 5.44101C13.2583 5.43992 13.1371 5.40643 13.0304 5.34387C12.9237 5.28132 12.8353 5.19188 12.7739 5.08449C12.7125 4.9771 12.6804 4.8555 12.6807 4.73182C12.6809 4.60813 12.7136 4.4867 12.7755 4.37958L14.0876 2.10712C14.1341 2.02654 14.196 1.95588 14.2698 1.89921C14.3435 1.84255 14.4277 1.80097 14.5175 1.77685C14.6074 1.75273 14.7011 1.74655 14.7933 1.75864C14.8855 1.77073 14.9745 1.80082 15.0551 1.84729C15.1356 1.89375 15.2063 1.95566 15.2629 2.02942C15.3196 2.10319 15.3612 2.18738 15.3853 2.27721C15.4094 2.36704 15.4156 2.46075 15.4035 2.55298C15.3915 2.64521 15.3613 2.73416 15.3148 2.81474L14.0027 5.0872C13.9398 5.1958 13.8492 5.28577 13.7401 5.34792C13.6311 5.41008 13.5075 5.4422 13.382 5.44101Z" fill="#808080"/>
</svg>
