<svg width="24" height="24" viewBox="0 0 24 24" fill="none" xmlns="http://www.w3.org/2000/svg">
<path d="M23.9402 20.5661C23.8895 20.3226 23.7442 20.1093 23.5362 19.9729C23.3282 19.8366 23.0746 19.7885 22.8312 19.8391C22.5877 19.8898 22.3743 20.0351 22.238 20.243C22.1016 20.451 22.0535 20.7046 22.1042 20.9481C22.1342 21.0912 22.1318 21.2392 22.0972 21.3813C22.0626 21.5233 21.9966 21.6559 21.9042 21.7691C21.8142 21.8814 21.7 21.9719 21.5701 22.0337C21.4402 22.0956 21.298 22.1271 21.1542 22.1261H2.84515C2.7013 22.1271 2.5591 22.0954 2.42921 22.0336C2.29932 21.9718 2.18511 21.8814 2.09515 21.7691C2.00262 21.6559 1.93662 21.5234 1.90201 21.3813C1.8674 21.2392 1.86506 21.0912 1.89515 20.9481C2.37883 18.6734 3.61392 16.6277 5.40157 15.1402C7.18923 13.6528 9.42543 12.8102 11.7501 12.7481C11.8328 12.7481 11.9158 12.7481 11.9991 12.7481C12.0825 12.7481 12.1655 12.7481 12.2481 12.7481C13.9018 12.7873 15.5218 13.2237 16.9715 14.0205C18.4211 14.8172 19.6577 15.951 20.5772 17.3261C20.6457 17.4283 20.7337 17.5161 20.8362 17.5843C20.9386 17.6525 21.0535 17.6999 21.1743 17.7237C21.295 17.7475 21.4193 17.7473 21.54 17.7231C21.6607 17.6989 21.7754 17.6512 21.8777 17.5826C21.9799 17.5141 22.0676 17.426 22.1358 17.3236C22.2041 17.2211 22.2514 17.1062 22.2752 16.9855C22.2991 16.8647 22.2989 16.7405 22.2747 16.6198C22.2504 16.4991 22.2027 16.3843 22.1342 16.2821C20.6216 14.0227 18.3975 12.3332 15.8151 11.4821C16.8879 10.6807 17.681 9.56186 18.082 8.28431C18.483 7.00676 18.4716 5.63537 18.0494 4.36468C17.6271 3.09398 16.8155 1.98851 15.7296 1.20507C14.6437 0.421625 13.3387 0 11.9997 0C10.6606 0 9.35562 0.421625 8.26972 1.20507C7.18382 1.98851 6.37217 3.09398 5.94992 4.36468C5.52767 5.63537 5.51625 7.00676 5.91729 8.28431C6.31832 9.56186 7.11144 10.6807 8.18415 11.4821C6.15241 12.1508 4.33231 13.3422 2.90653 14.9366C1.48075 16.5311 0.49946 18.4725 0.0611499 20.5661C-0.0261539 20.9806 -0.019904 21.4093 0.0794442 21.8211C0.178792 22.2329 0.368737 22.6173 0.635442 22.9463C0.902147 23.2754 1.2389 23.5409 1.62116 23.7233C2.00342 23.9058 2.42157 24.0007 2.84515 24.0011H21.1552C21.5787 24.0007 21.9969 23.9058 22.3791 23.7233C22.7614 23.5409 23.0982 23.2754 23.3649 22.9463C23.6316 22.6173 23.8215 22.2329 23.9209 21.8211C24.0202 21.4093 24.0265 20.9806 23.9391 20.5661H23.9402ZM7.50015 6.37611C7.50011 5.4958 7.75827 4.6348 8.24267 3.89974C8.72706 3.16468 9.41642 2.58784 10.2254 2.24065C11.0343 1.89346 11.9274 1.79117 12.7939 1.94644C13.6604 2.10172 14.4623 2.50773 15.1004 3.11422C15.7385 3.72071 16.1846 4.50102 16.3836 5.35855C16.5827 6.21607 16.5258 7.11313 16.2201 7.93866C15.9144 8.76418 15.3732 9.48191 14.6637 10.003C13.9541 10.524 13.1073 10.8255 12.2281 10.8701H12.0001H11.7731C10.621 10.8105 9.53561 10.3111 8.74064 9.47506C7.94567 8.63897 7.50168 7.52981 7.50015 6.37611Z" fill="#808080"/>
</svg>
