<svg width="30" height="22" viewBox="0 0 30 22" fill="none" xmlns="http://www.w3.org/2000/svg">
<path d="M29.9412 7.41657C30.0085 5.46934 29.5826 3.53668 28.7032 1.79804C28.1066 1.08464 27.2785 0.603201 26.3633 0.437624C22.578 0.0941525 18.777 -0.046625 14.9766 0.0158942C11.1901 -0.0494626 7.40275 0.0867722 3.63071 0.42402C2.88495 0.559676 2.19481 0.909474 1.6445 1.43073C0.420119 2.55988 0.284077 4.49167 0.148035 6.12418C-0.0493451 9.05937 -0.0493451 12.0045 0.148035 14.9397C0.187392 15.8585 0.324201 16.7706 0.556161 17.6605C0.720193 18.3476 1.05206 18.9833 1.52206 19.5107C2.07611 20.0596 2.78233 20.4293 3.54908 20.5718C6.48203 20.9339 9.43727 21.0839 12.3918 21.0208C17.1533 21.0888 21.3298 21.0208 26.2681 20.6398C27.0537 20.506 27.7798 20.1359 28.3495 19.5787C28.7304 19.1977 29.0149 18.7313 29.1794 18.2183C29.6659 16.7254 29.9049 15.1629 29.8868 13.5929C29.9412 12.831 29.9412 8.23282 29.9412 7.41657ZM11.9021 14.4091V5.98813L19.9557 10.219C17.6974 11.4706 14.7181 12.8855 11.9021 14.4091Z" fill="#808080"/>
</svg>
